<svg xmlns="http://www.w3.org/2000/svg" viewBox="0 0 59.25 38.24"><defs><style>.cls-1{opacity:0.87;}.cls-2{fill:#ffda00;}</style></defs><title>Recurso 1</title><g id="Capa_2" data-name="Capa 2"><g id="Capa_1-2" data-name="Capa 1"><g id="PKAWiE.tif" class="cls-1"><path class="cls-2" d="M0,30.58V7.66A1.39,1.39,0,0,0,.1,7.4,8.54,8.54,0,0,1,8.63,0q21,0,42,0A8.56,8.56,0,0,1,59,6.55c.09.37.17.74.26,1.11V30.58a.82.82,0,0,0-.1.26,8.57,8.57,0,0,1-8.53,7.38q-21,0-42,0A8.55,8.55,0,0,1,.26,31.69C.16,31.32.09,31,0,30.58ZM51.12,4.29h-43L29.62,25Zm0,29.66L38.77,22.07l-.49.46-6.89,6.61c-1.23,1.19-2.29,1.19-3.52,0L21,22.51l-.48-.44L8.12,34ZM17.43,19.12,4.56,6.75a16,16,0,0,0-.3,2q0,10.34,0,20.66a16.25,16.25,0,0,0,.3,2Zm24.39,0L54.7,31.5A15.25,15.25,0,0,0,55,29.45Q55,19.13,55,8.8a14.18,14.18,0,0,0-.29-2.05Z"/></g></g></g></svg>